<svg width="559" height="307" viewBox="0 0 559 307" fill="none" xmlns="http://www.w3.org/2000/svg">
<g clip-path="url(#clip0_202_39)">
<path d="M113.667 254.819C113.657 254.858 113.646 254.899 113.635 254.942C113.516 255.398 113.332 256.061 113.073 256.888C112.555 258.54 111.735 260.841 110.53 263.429C108.118 268.609 104.18 274.906 98.0642 279.46C91.9487 284.015 84.7836 285.987 79.125 286.817C76.2989 287.231 73.8574 287.359 72.1239 287.384C71.2574 287.396 70.5684 287.383 70.0975 287.366C70.0529 287.364 70.0102 287.363 69.9695 287.361C69.9796 287.322 69.9902 287.281 70.0014 287.238C70.1199 286.782 70.3036 286.119 70.5628 285.293C71.0813 283.64 71.9014 281.339 73.106 278.752C75.518 273.571 79.4565 267.274 85.5719 262.72C91.6874 258.165 98.8525 256.193 104.511 255.363C107.337 254.949 109.779 254.821 111.512 254.796C112.379 254.784 113.068 254.798 113.539 254.814C113.583 254.816 113.626 254.817 113.667 254.819Z" stroke="#FAFAFA"/>
<path d="M88.594 266.867C85.6549 273.899 80.4959 279.243 76.0501 282.838C73.8298 284.633 71.7943 285.986 70.3152 286.89C69.5759 287.341 68.9761 287.68 68.5624 287.906C68.5231 287.927 68.4854 287.947 68.4495 287.967C68.438 287.928 68.4261 287.887 68.4137 287.844C68.2834 287.392 68.103 286.727 67.9047 285.884C67.508 284.198 67.0401 281.801 66.7569 278.962C66.19 273.276 66.3674 265.853 69.3064 258.822C72.2455 251.79 77.4045 246.445 81.8503 242.851C84.0706 241.055 86.1061 239.702 87.5852 238.799C88.3245 238.347 88.9243 238.008 89.3379 237.783C89.3773 237.762 89.415 237.741 89.4509 237.722C89.4623 237.761 89.4743 237.802 89.4866 237.845C89.617 238.297 89.7973 238.961 89.9957 239.804C90.3924 241.49 90.8603 243.888 91.1435 246.727C91.7104 252.413 91.533 259.835 88.594 266.867Z" stroke="#FAFAFA"/>
<path d="M446.211 218.052C443.662 206.523 443.327 195.537 446.884 186.54L446.043 198.542C446.043 198.542 446.043 198.542 446.043 198.542C445.586 205.043 445.643 211.567 446.211 218.052Z" stroke="#FAFAFA"/>
<path d="M451.046 211.882C451.046 211.882 451.046 211.882 451.046 211.882C450.929 213.942 450.882 216.005 450.905 218.067C450.56 214.249 450.642 210.619 451.304 207.343L451.046 211.882Z" stroke="#FAFAFA"/>
<path d="M434.688 245.718L434.688 245.719L434.688 286.361C434.688 286.623 434.792 286.874 434.977 287.059C435.163 287.244 435.414 287.349 435.676 287.349H465.938C466.2 287.347 466.451 287.242 466.636 287.057C466.821 286.872 466.926 286.622 466.927 286.361C466.927 286.36 466.927 286.36 466.927 286.359L467.427 286.362L434.688 245.718ZM434.688 245.718C434.687 245.454 434.582 245.202 434.395 245.015C434.209 244.829 433.956 244.724 433.693 244.723H433.692H430.715C430.453 244.723 430.202 244.619 430.016 244.434C429.831 244.249 429.727 243.998 429.727 243.736L429.727 238.78L429.727 238.779C429.726 238.65 429.752 238.522 429.801 238.402C429.851 238.282 429.924 238.173 430.015 238.082C430.107 237.99 430.216 237.917 430.336 237.868C430.456 237.818 430.584 237.793 430.714 237.793H430.715H470.403C470.666 237.794 470.917 237.899 471.102 238.084C471.287 238.269 471.392 238.519 471.393 238.78L434.688 245.718Z" stroke="#FAFAFA"/>
<path d="M467.472 246.264H434.232V247.751H467.472V246.264Z" fill="#E6E6E6"/>
<path d="M466.927 258.03V267.809C456.129 272.19 445.228 272.238 434.192 267.808V258.03C444.824 254.543 456.295 254.543 466.927 258.03Z" stroke="#FAFAFA"/>
<path d="M281.114 107.975C305.944 107.975 326.073 87.8657 326.073 63.0593C326.073 38.2529 305.944 18.1433 281.114 18.1433C256.284 18.1433 236.155 38.2529 236.155 63.0593C236.155 87.8657 256.284 107.975 281.114 107.975Z" stroke="#FAFAFA" stroke-width="2"/>
<path d="M326.244 69.1996C322.698 63.6868 318.81 59.0728 314.944 54.4846L314.936 54.4751C310.807 49.5741 306.703 44.7018 303.013 38.7587L302.11 39.1694C302.076 39.0581 302.114 38.9708 302.13 38.9455C302.132 38.9431 302.133 38.9418 302.133 38.9418C302.132 38.9416 302.114 38.9646 302.054 39.0068C301.91 39.1086 301.65 39.2381 301.252 39.3881C300.509 39.6684 299.402 39.9785 297.993 40.308L292.377 35.6325L291.342 34.7711L291.564 36.099L292.454 41.4318C282.628 43.2196 267.672 45.1483 257.336 46.0666L256.447 38.9611L256.218 37.1319L255.491 38.8261L252.208 46.4801C250.147 46.7166 248.063 46.6947 246.006 46.4146L245.592 46.3582L245.463 46.7551C244.071 51.0281 242.53 55.1709 240.984 59.3248L240.983 59.3292C239.556 63.1636 238.126 67.0075 236.814 70.9577C227.413 56.2206 229.243 36.2301 239.289 21.7585C243.384 16.0442 248.619 11.2393 254.665 7.64661C260.549 4.14977 267.077 1.87522 273.858 0.956788V4.33457V5.46055L274.693 4.70549L279.32 0.523671C282.07 0.436646 284.823 0.589688 287.547 0.980969V5.77459V6.75788L288.342 6.17862L293.662 2.30037C305.738 5.91751 316.067 13.8422 322.681 24.5718C331.434 38.7804 329.215 51.7812 326.579 67.2312C326.468 67.8829 326.356 68.5389 326.244 69.1996Z" stroke="#FAFAFA"/>
<path d="M208.839 270.542C212.487 263.232 211.988 254.668 211.522 246.675C211.512 246.492 211.501 246.308 211.49 246.125C211.016 237.932 210.899 229.34 215.131 222.531C215.715 221.761 216.118 220.869 216.309 219.921L216.32 219.871L216.319 219.819C216.313 218.893 216.075 217.984 215.627 217.174C211.208 207.342 206.976 197.503 202.743 187.66L202.735 187.642C198.526 177.856 194.315 168.066 189.919 158.281C189.947 158.186 189.975 158.09 190.003 157.995C190.773 155.348 191.529 152.749 193.033 150.634C194.626 148.396 197.162 146.688 199.818 146.8L199.82 146.8C199.91 146.803 199.994 146.787 200.049 146.775C200.112 146.761 200.179 146.741 200.248 146.718C200.387 146.673 200.557 146.609 200.752 146.529C201.144 146.368 201.666 146.133 202.295 145.838C203.555 145.246 205.268 144.4 207.276 143.385C211.293 141.355 216.506 138.645 221.673 135.937C225.925 133.709 230.147 131.481 233.649 129.634C234.402 129.236 235.123 128.856 235.803 128.497C237.722 127.485 239.32 126.643 240.442 126.058C241.003 125.765 241.443 125.537 241.745 125.383C241.825 125.343 241.894 125.308 241.953 125.278L241.987 125.301L242.258 125.134C246.394 122.582 251.142 120.249 254.862 118.552C256.721 117.704 258.321 117.016 259.456 116.541C260.023 116.303 260.474 116.118 260.782 115.993C260.937 115.93 261.055 115.883 261.135 115.851L261.15 115.845C293.483 118.365 306.006 117.205 310.78 116.763C311.771 116.671 312.428 116.61 312.859 116.62V116.62H312.87C313.416 116.62 314.15 116.823 315.033 117.202C315.904 117.576 316.873 118.1 317.876 118.695C319.117 119.431 320.369 120.25 321.537 121.015C322.276 121.499 322.981 121.96 323.629 122.365C325.541 123.56 332.488 127.574 339.166 131.389C345.836 135.199 352.289 138.84 353.201 139.279L353.219 139.288L208.391 270.32M208.839 270.542C208.839 270.543 208.839 270.543 208.838 270.543L208.391 270.32M208.839 270.542C208.839 270.542 208.839 270.542 208.839 270.542L208.391 270.32M208.839 270.542C208.361 271.508 207.817 272.434 207.285 273.339L207.185 273.509C206.617 274.475 206.068 275.421 205.606 276.405L205.603 276.411C205.08 277.486 204.623 279.197 204.258 281.272C203.895 283.336 203.629 285.722 203.472 288.124C203.172 292.716 203.276 297.286 203.825 299.756M208.391 270.32C207.922 271.269 207.386 272.181 206.851 273.09C206.252 274.11 205.654 275.127 205.153 276.192C202.935 280.754 202.133 295.343 203.429 300.245M203.825 299.756L203.443 299.745L203.429 300.245M203.825 299.756L365.081 304.371M203.825 299.756C203.853 299.882 203.882 300.002 203.912 300.117L203.429 300.245M203.429 300.245L365.209 304.875C365.163 304.723 365.12 304.555 365.081 304.371M365.081 304.371L365.596 304.386L365.081 304.371ZM377.808 178.562C377.313 178.496 377.312 178.497 377.312 178.498L377.312 178.502L377.31 178.518L377.303 178.571C377.307 178.595 377.311 178.62 377.315 178.644L377.808 178.562ZM369.901 151.658C369.901 151.658 369.901 151.659 369.901 151.659L370.345 151.429L369.901 151.658ZM356.848 140.133C356.855 140.134 356.863 140.134 356.87 140.135L356.914 139.637L356.827 140.129C356.834 140.13 356.841 140.132 356.848 140.133Z" fill="#FAFAFA" stroke="#FAFAFA"/>
<path d="M197.455 207.47C203.631 207.325 210.156 207.98 215.224 211.514C221.384 215.818 224.218 223.718 224.169 231.232C224.121 238.745 221.595 245.99 218.891 253.004C218.778 253.301 218.664 253.598 218.551 253.895C217.213 257.392 215.879 260.88 215.34 264.55L215.333 264.55L215.332 264.549C215.331 264.549 215.331 264.549 215.272 265.046M197.455 207.47C196.171 207.507 194.62 207.446 192.963 207.38C188.823 207.216 184.026 207.025 181.095 208.279M197.455 207.47L197.467 207.97C197.468 207.97 197.468 207.97 197.468 207.97M197.455 207.47L197.47 207.97C197.469 207.97 197.469 207.97 197.468 207.97M181.095 208.279C177.847 209.708 175.964 215.094 175.358 218.271M181.095 208.279L181.291 208.739C181.292 208.738 181.293 208.738 181.294 208.738M181.095 208.279L181.296 208.737C181.295 208.737 181.294 208.737 181.294 208.738M175.358 218.271C175.034 220.611 175.001 222.983 175.261 225.331L177.587 258.709L177.61 259.04C177.821 262.075 178.031 265.103 178.316 268.131C178.874 274.221 179.708 280.263 180.743 286.296C180.766 287.152 181.129 287.964 181.751 288.554C182.373 289.144 183.204 289.463 184.062 289.441C194.302 291.606 204.882 291.52 215.334 290.93C217.297 290.82 219.637 290.699 222.236 290.564C240.747 289.603 272.39 287.96 274.576 285.123C277.068 281.888 275.616 276.655 272.365 274.039C269.299 271.571 221.193 265.754 215.769 265.105C215.768 265.106 215.768 265.107 215.768 265.109L215.272 265.046M175.358 218.271L175.849 218.365C175.85 218.36 175.85 218.356 175.851 218.352M175.358 218.271L175.853 218.339C175.852 218.344 175.852 218.348 175.851 218.352M215.272 265.046L215.213 265.542L214.713 265.483L214.776 264.983C215.271 261.068 216.686 257.369 218.08 253.726C218.195 253.425 218.309 253.125 218.424 252.826L218.424 252.824C221.129 245.809 223.621 238.641 223.669 231.229C223.717 223.82 220.921 216.105 214.938 211.924L214.937 211.924C210.006 208.486 203.619 207.825 197.468 207.97M215.272 265.046C215.213 265.542 215.214 265.542 215.214 265.542L215.216 265.543L215.223 265.544L215.252 265.547L215.368 265.561L215.818 265.615C216.213 265.662 216.793 265.732 217.532 265.821C219.01 266.001 221.125 266.26 223.674 266.579C228.771 267.218 235.601 268.097 242.531 269.057C249.463 270.017 256.491 271.059 261.987 272.023C264.736 272.505 267.094 272.967 268.863 273.388C269.748 273.599 270.478 273.798 271.031 273.982C271.607 274.173 271.927 274.328 272.052 274.429C273.584 275.662 274.702 277.523 275.136 279.459C275.571 281.394 275.313 283.347 274.18 284.818C274.105 284.914 273.9 285.069 273.476 285.253C273.07 285.429 272.524 285.605 271.844 285.781C270.485 286.131 268.646 286.463 266.44 286.775C262.032 287.399 256.213 287.94 249.963 288.408C240.543 289.113 230.171 289.651 222.215 290.064C219.615 290.199 217.272 290.321 215.306 290.431L215.306 290.431C204.865 291.02 194.339 291.103 184.165 288.952L184.108 288.94L184.049 288.942C183.324 288.96 182.621 288.69 182.095 288.191C181.569 287.693 181.262 287.006 181.243 286.282L181.242 286.246L181.236 286.211C180.203 280.189 179.371 274.16 178.814 268.086L178.814 268.084C178.529 265.063 178.319 262.04 178.109 259.003L178.086 258.675L178.086 258.674L175.759 225.297L175.759 225.287L175.758 225.277C175.503 222.973 175.535 220.648 175.851 218.352M175.851 218.352C176.149 216.8 176.758 214.71 177.684 212.841C178.621 210.95 179.836 209.38 181.294 208.738M181.294 208.738C183.238 207.907 186.105 207.731 189.123 207.765C190.407 207.779 191.7 207.83 192.942 207.879C193.15 207.888 193.356 207.896 193.561 207.904C194.983 207.959 196.326 208.003 197.468 207.97" fill="#1A1818" stroke="#FAFAFA"/>
<path d="M188.92 158.917C188.131 159.742 187.52 160.719 187.123 161.789C180.579 176.522 176.714 192.302 175.709 208.389C175.726 209.173 175.545 209.95 175.183 210.646C174.825 211.109 174.427 211.539 173.993 211.931C173.614 212.379 173.328 212.898 173.15 213.456C172.972 214.015 172.906 214.603 172.956 215.188C173.005 215.772 173.17 216.341 173.439 216.861C173.709 217.382 174.078 217.845 174.527 218.223C174.601 218.285 174.676 218.344 174.754 218.401C176.089 215.89 179.287 215.069 182.129 214.851C195.737 213.776 209.029 220.1 222.678 219.623C221.715 216.299 220.33 213.105 219.544 209.741C216.071 194.803 224.734 178.539 219.423 164.151C218.362 161.272 216.59 158.441 213.797 157.179C212.641 156.713 211.43 156.393 210.195 156.227C206.746 155.604 199.881 152.943 196.546 154.011C195.315 154.408 194.83 155.564 193.81 156.262C192.26 157.251 190.204 157.615 188.92 158.917Z" fill="#FAFAFA"/>
<path d="M343.728 265.046L343.787 265.542L344.287 265.483L344.224 264.983C343.729 261.068 342.314 257.369 340.92 253.725C340.805 253.425 340.691 253.125 340.576 252.826L340.576 252.824C337.871 245.809 335.379 238.641 335.331 231.229C335.283 223.82 338.079 216.105 344.062 211.924C348.993 208.486 355.381 207.825 361.532 207.97C362.674 208.003 364.017 207.959 365.439 207.904C365.644 207.896 365.85 207.888 366.058 207.879C367.3 207.83 368.592 207.779 369.876 207.765C372.895 207.731 375.762 207.907 377.706 208.738C379.164 209.38 380.379 210.95 381.316 212.841C382.242 214.71 382.851 216.8 383.149 218.352C383.465 220.648 383.497 222.973 383.242 225.277L383.241 225.287L383.241 225.297L380.914 258.674L380.914 258.674L380.891 259.002C380.681 262.039 380.471 265.062 380.186 268.084L380.186 268.086C379.629 274.16 378.797 280.189 377.764 286.211L377.758 286.246L377.757 286.282C377.738 287.006 377.431 287.693 376.905 288.191C376.379 288.69 375.676 288.96 374.951 288.942L374.892 288.94L374.835 288.952C373.603 289.213 371.308 289.398 368.193 289.51C365.091 289.622 361.211 289.66 356.829 289.635C348.066 289.584 337.312 289.28 326.798 288.808C316.284 288.335 306.017 287.694 298.225 286.969C294.328 286.607 291.059 286.224 288.691 285.833C287.505 285.637 286.558 285.441 285.875 285.247C285.533 285.15 285.271 285.058 285.082 284.972C284.989 284.929 284.921 284.891 284.875 284.86C284.833 284.832 284.819 284.816 284.819 284.816C283.687 283.346 283.429 281.393 283.864 279.459C284.298 277.523 285.416 275.662 286.948 274.429C287.073 274.328 287.393 274.173 287.969 273.982C288.522 273.798 289.252 273.599 290.137 273.388C291.906 272.967 294.264 272.505 297.013 272.023C302.509 271.059 309.537 270.017 316.469 269.057C323.399 268.097 330.229 267.218 335.326 266.579C337.875 266.26 339.99 266.001 341.468 265.821C342.207 265.732 342.787 265.662 343.182 265.615L343.632 265.561L343.748 265.547L343.777 265.544L343.784 265.543L343.786 265.542C343.786 265.542 343.787 265.542 343.728 265.046Z" fill="#1A1818" stroke="#FAFAFA"/>
<path d="M365.19 156.262C364.17 155.564 363.685 154.408 362.454 154.011C359.119 152.943 352.254 155.604 348.805 156.227C347.57 156.393 346.359 156.713 345.203 157.179C342.41 158.441 340.638 161.272 339.577 164.151C334.266 178.539 342.929 194.803 339.456 209.741C338.67 213.105 337.285 216.299 336.322 219.623C349.971 220.1 363.263 213.776 376.871 214.851C379.713 215.069 382.911 215.89 384.246 218.401C384.324 218.344 384.399 218.285 384.473 218.223C384.922 217.845 385.291 217.382 385.561 216.861C385.831 216.341 385.995 215.772 386.044 215.188C386.094 214.603 386.028 214.015 385.85 213.456C385.672 212.898 385.386 212.379 385.007 211.931C384.573 211.539 384.175 211.108 383.817 210.645C383.455 209.95 383.274 209.173 383.291 208.389C382.286 192.302 378.421 176.522 371.877 161.789C371.48 160.719 370.869 159.742 370.08 158.917C368.796 157.615 366.74 157.251 365.19 156.262Z" fill="#FAFAFA"/>
<path d="M267.799 291.035C274.501 291.035 279.933 285.608 279.933 278.913C279.933 272.217 274.501 266.79 267.799 266.79C261.097 266.79 255.665 272.217 255.665 278.913C255.665 285.608 261.097 291.035 267.799 291.035Z" fill="#1A1818"/>
<path d="M294.668 291.035C301.37 291.035 306.802 285.608 306.802 278.913C306.802 272.217 301.37 266.79 294.668 266.79C287.966 266.79 282.534 272.217 282.534 278.913C282.534 285.608 287.966 291.035 294.668 291.035Z" fill="#1A1818"/>
<path d="M364.571 306.23H197.862C195.916 306.228 194.05 305.454 192.674 304.079C191.297 302.704 190.523 300.84 190.521 298.896V197.855C190.523 195.91 191.297 194.046 192.674 192.671C194.05 191.296 195.916 190.523 197.862 190.521H364.571C366.517 190.523 368.383 191.296 369.759 192.671C371.136 194.046 371.91 195.91 371.912 197.855V298.896C371.91 300.84 371.136 302.704 369.759 304.079C368.383 305.454 366.517 306.228 364.571 306.23Z" fill="#01010C"/>
<path d="M280.812 253.228C283.495 253.228 285.669 251.055 285.669 248.375C285.669 245.695 283.495 243.523 280.812 243.523C278.13 243.523 275.955 245.695 275.955 248.375C275.955 251.055 278.13 253.228 280.812 253.228Z" fill="white"/>
<path d="M33.5642 303.011V302.511H33.0642H0.5V286.349H558.5V302.511H525.948H525.448V303.011V306.5H33.5642V303.011Z" stroke="#FAFAFA"/>
<path d="M239.772 79.8004C232.548 79.8004 226.692 73.4745 226.692 65.6711V58.6064C226.692 50.803 232.548 44.4772 239.772 44.4772V79.8004H239.772Z" fill="#FAFAFA"/>
<path d="M323.259 44.4773C330.483 44.4773 336.339 50.8032 336.339 58.6066V65.6712C336.339 73.4746 330.483 79.8005 323.259 79.8005V44.4773Z" fill="#FAFAFA"/>
<path d="M330.113 59.7166H328.037C328.037 31.2858 306.625 8.15547 280.305 8.15547C253.985 8.15547 232.572 31.2858 232.572 59.7166H230.496C230.496 30.0496 252.84 5.9137 280.305 5.9137C307.769 5.91371 330.113 30.0496 330.113 59.7166Z" fill="#FAFAFA"/>
</g>
<defs>
<clipPath id="clip0_202_39">
<rect width="559" height="307" fill="white"/>
</clipPath>
</defs>
</svg>
